<?xml version="1.0" encoding="UTF-8"?>
<svg width="22px" height="30px" viewBox="0 0 22 30" version="1.1" xmlns="http://www.w3.org/2000/svg" xmlns:xlink="http://www.w3.org/1999/xlink">
    <title>casinha-chat</title>
    <g id="V4" stroke="none" stroke-width="1" fill="none" fill-rule="evenodd">
        <g id="M---1.0---HOME-V4-" transform="translate(-261.000000, -2463.000000)" fill="#FFBD59">
            <g id="Group-11" transform="translate(88.000000, 2451.000000)">
                <g id="casinha-chat" transform="translate(173.000000, 12.000000)">
                    <path d="M10.6143268,0.000237883448 C10.6906667,-0.0426379335 0.0935424837,5.72468233 0.0935424837,5.72468233 L21.2349804,5.72468233 C21.2349804,5.72468233 10.5385098,0.0394535697 10.6143268,0.000237883448" id="Fill-1"></path>
                    <path d="M2.08983158e-14,29.6213098 L21.44,29.6213098 L21.44,8.12222481 L2.08983158e-14,8.12222481 L2.08983158e-14,29.6213098 Z M17.3490196,24.8139895 C17.3490196,25.1721595 17.0593464,25.4654928 16.7011765,25.4654928 L4.85124183,25.4654928 C4.4930719,25.4654928 4.19973856,25.1721595 4.19973856,24.8139895 L4.19973856,12.9284993 C4.19973856,12.5703294 4.4930719,12.2790876 4.85124183,12.2790876 L16.7011765,12.2790876 C17.0593464,12.2790876 17.3490196,12.5703294 17.3490196,12.9284993 L17.3490196,24.8139895 Z" id="Fill-3"></path>
                </g>
            </g>
        </g>
    </g>
</svg>