<?xml version="1.0" encoding="UTF-8"?>
<svg width="128px" height="55px" viewBox="0 0 128 55" version="1.1" xmlns="http://www.w3.org/2000/svg" xmlns:xlink="http://www.w3.org/1999/xlink">
    <title>Group 50</title>
    <defs>
        <polygon id="path-1" points="0.123851251 0.0601902186 5.8992851 0.0601902186 5.8992851 6.31057021 0.123851251 6.31057021"></polygon>
        <polygon id="path-3" points="0 0.0403245436 14.0277539 0.0403245436 14.0277539 11.6510165 0 11.6510165"></polygon>
        <polygon id="path-5" points="0.0511913455 0.0335722335 39.1736218 0.0335722335 39.1736218 42.3725761 0.0511913455 42.3725761"></polygon>
    </defs>
    <g id="V4" stroke="none" stroke-width="1" fill="none" fill-rule="evenodd">
        <g id="M---1.0---HOME-V4--Form-Respondido" transform="translate(-96.000000, -6065.000000)">
            <g id="Group-16" transform="translate(24.000000, 5781.000000)">
                <g id="Group-50" transform="translate(72.000000, 284.000000)">
                    <g id="Group-3" transform="translate(29.154834, 48.557818)">
                        <mask id="mask-2" fill="white">
                            <use xlink:href="#path-1"></use>
                        </mask>
                        <g id="Clip-2"></g>
                        <path d="M5.83756773,1.55945549 L5.76247194,1.55945549 C5.70643408,1.27017895 5.55712599,1.0250764 5.31429524,0.824021636 C5.07159071,0.622840658 4.7925373,0.476183007 4.47763985,0.383796259 C4.16248997,0.291409511 3.86829119,0.245216137 3.59453865,0.245216137 C3.22070047,0.245216137 2.86958035,0.316778003 2.5414307,0.460154158 C2.21315483,0.603656525 1.92981023,0.805847194 1.69139689,1.0671048 C1.45285734,1.32848862 1.26757899,1.64187153 1.13505702,2.0077584 C1.00240883,2.37339283 0.936274059,2.77095876 0.936274059,3.19944647 C0.936274059,3.6148082 1.00026324,4.00013162 1.12836782,4.35503809 C1.25647239,4.71019698 1.44339148,5.01827902 1.68912508,5.27978905 C1.93485869,5.54079423 2.21971783,5.7385675 2.54357629,5.87260401 C2.86743475,6.00651431 3.22637999,6.07340636 3.62091684,6.07340636 C3.95058102,6.07340636 4.31268154,6.01244625 4.70721839,5.89052603 C5.10162903,5.76860581 5.45779761,5.56565788 5.77585035,5.28155601 L5.77585035,5.51075592 C5.38409015,5.78678026 5.02577597,5.98909714 4.70052919,6.11770656 C4.3752824,6.24644219 3.96989137,6.3106838 3.48410367,6.3106838 C2.97181158,6.3106838 2.50445076,6.2254911 2.08227361,6.05535812 C1.65959162,5.88522515 1.30279198,5.65526797 1.01136984,5.36599144 C0.719947712,5.07658869 0.499077755,4.75096326 0.349138607,4.38936759 C0.198947036,4.0275195 0.123851251,3.65506964 0.123851251,3.27176561 C0.123851251,2.69573676 0.279722335,2.16060041 0.591843137,1.66610412 C0.903837728,1.17173405 1.3262673,0.780478702 1.85925806,0.492211855 C2.39199639,0.204449854 2.97029705,0.0601902186 3.59453865,0.0601902186 C3.98011449,0.0601902186 4.39055398,0.11244174 4.82636196,0.216818571 L5.28577147,0.33356412 C5.37386703,0.349592968 5.44896281,0.357670498 5.51068019,0.357670498 C5.62565878,0.357670498 5.70214289,0.342146495 5.74025873,0.311477124 C5.778627,0.280681542 5.80803426,0.225148524 5.82873293,0.144625648 L5.8992851,0.144625648 L5.83756773,1.55945549 Z" id="Fill-1" fill="#BA9E67" mask="url(#mask-2)"></path>
                    </g>
                    <path d="M41.0596746,48.7909434 L41.0596746,48.8592238 C40.865309,48.8618742 40.6923994,48.9033978 40.5408195,48.9836682 C40.3892396,49.0641911 40.2706009,49.1478693 40.1852819,49.2350814 C40.099963,49.322041 40.0088384,49.4273013 39.9115294,49.5506099 L38.3925752,51.6327194 L38.3925752,54.0043579 C38.3925752,54.2160144 38.4626225,54.3747884 38.6022123,54.4804273 C38.742307,54.5865711 38.910673,54.6418517 39.1079414,54.647405 L39.1079414,54.7116466 L37.0460257,54.7116466 L37.0460257,54.647405 C37.2549056,54.6418517 37.4203687,54.5878332 37.5426676,54.4844661 C37.6648402,54.3813514 37.7259265,54.2213153 37.7259265,54.0043579 L37.7259265,51.7331837 L36.0701591,49.474252 C35.8933369,49.2302853 35.7351941,49.0682299 35.5953518,48.9879594 C35.4556358,48.9074366 35.2665711,48.8645247 35.0279053,48.8592238 L35.0279053,48.7909434 L37.3373216,48.7909434 L37.3373216,48.8592238 C37.1018111,48.8671751 36.9509885,48.9134947 36.8847275,48.9979301 C36.8184665,49.0822394 36.7855254,49.162005 36.7855254,49.2371007 C36.7855254,49.3229245 36.8426991,49.4435826 36.9575515,49.5988226 L38.3131882,51.4277521 L39.5142159,49.7798098 C39.6965914,49.5331927 39.7878422,49.3442542 39.7878422,49.2129944 C39.7878422,49.1218697 39.7636096,49.0509389 39.7150183,48.9999495 C39.6664269,48.9490863 39.6172044,48.9153879 39.5670985,48.899359 C39.5169926,48.883204 39.46411,48.8699518 39.4080721,48.8592238 L39.4080721,48.7909434 L41.0596746,48.7909434 Z" id="Fill-4" fill="#BA9E67"></path>
                    <path d="M42.4729015,51.6729682 L42.8438368,51.6729682 C43.2324417,51.6729682 43.5509993,51.622105 43.7998882,51.5201262 C44.0483985,51.4182736 44.2288808,51.2728781 44.3408303,51.0839396 C44.4526536,50.8951273 44.508439,50.6640343 44.508439,50.3907866 C44.508439,50.162975 44.4583331,49.9398332 44.3583737,49.7212351 C44.258288,49.5030156 44.0882813,49.3195042 43.8484796,49.1707009 C43.6084255,49.0218977 43.2854505,48.9476854 42.879176,48.9476854 C42.7143439,48.9476854 42.5790453,48.9598017 42.4729015,48.9836556 L42.4729015,51.6729682 Z M41.1969042,48.87524 L41.1085562,48.87524 L41.1085562,48.7909308 L43.3604201,48.7909308 C43.7225206,48.7909308 44.0294668,48.841794 44.2811323,48.9435204 C44.5327978,49.0454992 44.7285517,49.1747397 44.868394,49.3314943 C45.0082362,49.4881226 45.1083218,49.6538382 45.1686509,49.8280099 C45.2289799,50.0021817 45.2591445,50.1735767 45.2591445,50.3424476 C45.2591445,50.5568808 45.209922,50.7624792 45.1110985,50.9593689 C45.0125274,51.1562587 44.8610737,51.3257606 44.6563588,51.4680009 C44.4518963,51.6099887 44.1964444,51.7064142 43.8902556,51.7572774 L43.8902556,51.7734325 C44.2789867,51.9449538 44.6380581,52.285346 44.9678485,52.7943565 L45.554984,53.6987875 C45.8200279,54.1034212 46.032568,54.359378 46.1929826,54.4665314 C46.3533973,54.5735587 46.5117927,54.6338878 46.6676637,54.6473924 L46.6676637,54.711634 L45.4843056,54.711634 C45.4343259,54.6526933 45.3873753,54.5956457 45.3429488,54.5407437 C45.2989011,54.485968 45.2518242,54.4276583 45.2018445,54.365941 C45.1724372,54.3258057 45.1288943,54.2648456 45.0715943,54.1831868 C45.0141681,54.1012756 44.97946,54.0552085 44.9678485,54.0444805 L44.1906387,52.874627 C44.0345152,52.6363399 43.8748578,52.4427316 43.711414,52.2939283 C43.5482227,52.1451251 43.3958855,52.0386027 43.2545287,51.9743611 C43.113172,51.9101195 42.9856984,51.869858 42.872613,51.853703 C42.7594014,51.8376741 42.6259959,51.8295966 42.4729015,51.8295966 L42.4729015,53.9960153 C42.4729015,54.4168041 42.708412,54.6338878 43.1795592,54.6473924 L43.1795592,54.711634 L41.1085562,54.711634 L41.1085562,54.6473924 C41.2381753,54.6418391 41.3527753,54.6200045 41.4528609,54.5810052 C41.5530728,54.5421321 41.6362461,54.4751138 41.7023809,54.3800766 C41.7686419,54.2849132 41.8019617,54.1569349 41.8019617,53.9960153 L41.8019617,49.5184133 C41.8019617,49.2827767 41.7384773,49.11643 41.6118873,49.0200045 C41.4852973,48.9234528 41.3469696,48.87524 41.1969042,48.87524 L41.1969042,48.87524 Z" id="Fill-6" fill="#BA9E67"></path>
                    <path d="M46.6859391,48.8592238 L46.6859391,48.7909434 L50.5627748,48.7909434 L50.5627748,49.7233933 L50.5010575,49.7233933 C50.5010575,49.2249844 50.1358017,48.9758431 49.4059211,48.9758431 L48.0502844,48.9758431 L48.0502844,51.6649033 L49.2426036,51.6649033 C49.4778616,51.6649033 49.6883822,51.630069 49.873913,51.5602741 C50.0593176,51.4907316 50.1653351,51.3312004 50.1918395,51.082059 L50.2581005,51.082059 L50.2581005,52.4245698 L50.1918395,52.4245698 C50.1653351,52.2717277 50.1153554,52.1546036 50.041648,52.0728186 C49.9680667,51.9910336 49.8952427,51.9370151 49.8230498,51.9101321 C49.7509831,51.883249 49.6868677,51.8698706 49.6310823,51.8698706 C49.5250647,51.8537156 49.4146297,51.845638 49.2997773,51.845638 L48.0502844,51.845638 L48.0502844,53.9478152 C48.0502844,54.1059581 48.083478,54.242645 48.149739,54.357876 C48.2157476,54.4732333 48.3697255,54.5307857 48.6111679,54.5307857 L49.5779473,54.5307857 C49.8106811,54.5307857 50.0020176,54.4998639 50.1520829,54.4383989 C50.3021483,54.3766815 50.420787,54.2908578 50.5074943,54.1811801 C50.5943277,54.0711237 50.6671517,53.9386018 50.7260924,53.7831093 L50.7880622,53.7831093 L50.5627748,54.7116466 L46.6859391,54.7116466 L46.6859391,54.647405 L46.7741609,54.647405 C46.9124886,54.647405 47.0480397,54.5965418 47.1804354,54.494563 C47.3129574,54.3928366 47.3790922,54.2266162 47.3790922,53.9960279 L47.3790922,49.5344548 C47.3790922,49.3522055 47.3342871,49.1941889 47.2444246,49.0601524 C47.1545621,48.9261158 46.9978075,48.8592238 46.7741609,48.8592238 L46.6859391,48.8592238 Z" id="Fill-8" fill="#BA9E67"></path>
                    <path d="M50.9517332,54.6474429 L51.0398287,54.6474429 C51.1988551,54.6474429 51.3394546,54.5903953 51.4617534,54.4765526 C51.5837999,54.3627099 51.6448862,54.2025477 51.6448862,53.9960658 L51.6448862,49.5264151 C51.6448862,49.2800505 51.5763534,49.108403 51.4395402,49.0118513 C51.3027271,48.9154257 51.1400406,48.8645625 50.9517332,48.8592617 L50.9517332,48.7909813 L53.0314447,48.7909813 L53.0314447,48.8592617 C52.8486906,48.8645625 52.6868875,48.9141636 52.5457832,49.0079387 C52.4044264,49.10184 52.3336218,49.2747496 52.3336218,49.5264151 L52.3336218,53.847515 C52.3336218,54.1046076 52.4044264,54.2828181 52.5457832,54.3818941 C52.6868875,54.4813487 52.9181068,54.5306973 53.2389362,54.5306973 L53.7995673,54.5306973 C54.0440388,54.5306973 54.2391616,54.5039405 54.3846833,54.4503007 C54.5303313,54.396787 54.645941,54.315002 54.7313861,54.2050719 C54.8168312,54.0953942 54.9036646,53.9399017 54.9918864,53.7390994 L55.066856,53.7390994 L54.8196078,54.7116845 L50.9517332,54.7116845 L50.9517332,54.6474429 Z" id="Fill-10" fill="#BA9E67"></path>
                    <path d="M56.5860122,52.0868533 L58.6570151,52.0868533 L57.5972179,49.277135 L57.5795483,49.277135 L56.5860122,52.0868533 Z M58.0654622,48.7185233 L60.0123994,53.7910859 C60.1157665,54.0539842 60.2126969,54.2441848 60.3040739,54.3618138 C60.3953248,54.4798215 60.4829155,54.5542862 60.5668461,54.5850818 C60.6507767,54.6158774 60.7572991,54.6365761 60.8869182,54.6474302 L60.8869182,54.7116719 L58.7629065,54.7116719 L58.7629065,54.6474302 C58.9808736,54.6474302 59.1486085,54.6286247 59.2663638,54.5910137 C59.384119,54.553529 59.4430597,54.4516764 59.4430597,54.2855822 C59.4430597,54.1944575 59.4149146,54.0725373 59.3591291,53.9196953 C59.3472653,53.8984918 59.3414595,53.8822105 59.3414595,53.8716087 L58.7629065,52.2997719 L56.5111688,52.2997719 L55.9944593,53.7549894 C55.9237809,53.9533937 55.888568,54.1127987 55.888568,54.2332044 C55.888568,54.3994248 55.9340041,54.509986 56.0253811,54.5650142 C56.116632,54.6199162 56.2461249,54.6474302 56.413986,54.6474302 L56.413986,54.7116719 L54.8860708,54.7116719 L54.8860708,54.6474302 C55.1040379,54.6286247 55.278462,54.5528979 55.4094695,54.4202497 C55.5403507,54.2876015 55.6544458,54.0859157 55.7517548,53.8153185 L57.5883831,48.7185233 L58.0654622,48.7185233 Z" id="Fill-12" fill="#BA9E67"></path>
                    <path d="M65.6386009,51.6888709 L64.9719522,51.6888709 L64.9719522,53.8233581 C64.9719522,53.965346 64.9874762,54.0839847 65.0182718,54.1790219 C65.0491936,54.2741853 65.1337552,54.3566013 65.2723354,54.42627 C65.4104106,54.4960649 65.6239603,54.530773 65.9124796,54.530773 C66.5098382,54.530773 66.935423,54.3499121 67.1886031,53.988064 C67.3621438,53.7390489 67.4491034,53.4589858 67.4491034,53.1480009 C67.4491034,52.9228398 67.4056867,52.719387 67.3188533,52.5370115 C67.2318936,52.3547622 67.1127501,52.2028037 66.9611702,52.0807573 C66.8094641,51.9589633 66.6188848,51.8631688 66.3893063,51.7935001 C66.1597277,51.7237052 65.9094505,51.6888709 65.6386009,51.6888709 L65.6386009,51.6888709 Z M64.9719522,51.5081361 L65.3958963,51.5081361 C65.7431039,51.5081361 65.9904783,51.4759522 66.1375145,51.4115844 C66.2316682,51.3686725 66.3298607,51.3097318 66.4313347,51.234636 C66.5329349,51.1599189 66.6298652,51.0419112 66.7227568,50.8811179 C66.815396,50.7201983 66.8617156,50.5258328 66.8617156,50.2981474 C66.8617156,50.1213252 66.83092,49.9530854 66.7690764,49.7936804 C66.707359,49.6344016 66.6174965,49.4930449 66.4996151,49.3696101 C66.381986,49.2463016 66.2421438,49.1500023 66.0803408,49.0802073 C65.9182853,49.0106649 65.7415894,48.9758305 65.5505053,48.9758305 C65.3826441,48.9758305 65.1896669,49.0052378 64.9719522,49.0641785 L64.9719522,51.5081361 Z M66.0405842,54.711634 L63.6076069,54.711634 L63.6076069,54.6473924 L63.6958287,54.6473924 C63.860787,54.6473924 64.0027748,54.5931215 64.1219184,54.4844535 C64.2411882,54.3760379 64.30076,54.2130989 64.30076,53.9960153 L64.30076,49.5263647 C64.30076,49.3148343 64.2457318,49.1506333 64.1352968,49.034014 C64.0249881,48.9175208 63.8753013,48.8592112 63.6869939,48.8592112 L63.6076069,48.8592112 L63.6076069,48.7909308 L65.7313662,48.7909308 C66.0109245,48.7909308 66.2686482,48.8276583 66.5041587,48.901492 C66.7397954,48.9751995 66.9392094,49.0769259 67.1024007,49.2069236 C67.2659707,49.3367951 67.3916773,49.4843363 67.479899,49.6490421 C67.5683732,49.8138742 67.612421,49.9927158 67.612421,50.1855668 C67.612421,50.542114 67.485831,50.8313906 67.2326509,51.0540275 C66.9794708,51.2762858 66.6395835,51.4396033 66.2127365,51.5442326 L66.2127365,51.5602614 C66.4069759,51.5791931 66.5937688,51.6073383 66.7734938,51.6448231 C66.9530926,51.6823079 67.1148957,51.7344332 67.2591553,51.8015776 C67.4032887,51.8684697 67.5388398,51.9555556 67.6654298,52.062709 C67.7802822,52.159387 67.877465,52.2651521 67.9568519,52.3803831 C68.0362389,52.4956142 68.0966942,52.6209421 68.1378391,52.7561145 C68.1791102,52.8915393 68.1998089,53.0302457 68.1998089,53.1722335 C68.1998089,53.4803155 68.1122182,53.7456119 67.9370367,53.9679964 C67.7617291,54.1905071 67.5638296,54.359378 67.3430859,54.4744828 C67.0281884,54.6326256 66.5937688,54.711634 66.0405842,54.711634 L66.0405842,54.711634 Z" id="Fill-14" fill="#BA9E67"></path>
                    <path d="M74.2317043,48.7909434 L74.2317043,48.8592238 C74.037465,48.8618742 73.8645553,48.9033978 73.7129754,48.9836682 C73.5612693,49.0641911 73.4426306,49.1478693 73.3573117,49.2350814 C73.2719928,49.322041 73.1809944,49.4273013 73.0836854,49.5506099 L71.5647311,51.6327194 L71.5647311,54.0043579 C71.5647311,54.2160144 71.6346522,54.3747884 71.7743683,54.4804273 C71.9143367,54.5865711 72.0828289,54.6418517 72.2800974,54.647405 L72.2800974,54.7116466 L70.2180554,54.7116466 L70.2180554,54.647405 C70.4269353,54.6418517 70.5925247,54.5878332 70.7148235,54.4844661 C70.83687,54.3813514 70.8979563,54.2213153 70.8979563,54.0043579 L70.8979563,51.7331837 L69.2421889,49.474252 C69.0654929,49.2302853 68.90735,49.0682299 68.7673816,48.9879594 C68.6277918,48.9074366 68.4386009,48.8645247 68.1999351,48.8592238 L68.1999351,48.7909434 L70.5094776,48.7909434 L70.5094776,48.8592238 C70.2739671,48.8671751 70.1230183,48.9134947 70.0568835,48.9979301 C69.9904963,49.0822394 69.9575551,49.162005 69.9575551,49.2371007 C69.9575551,49.3229245 70.0148551,49.4435826 70.1297075,49.5988226 L71.4853442,51.4277521 L72.6862457,49.7798098 C72.8686211,49.5331927 72.9599982,49.3442542 72.9599982,49.2129944 C72.9599982,49.1218697 72.9357656,49.0509389 72.8871742,48.9999495 C72.8385828,48.9490863 72.7892342,48.9153879 72.7392545,48.899359 C72.6891485,48.883204 72.6361397,48.8699518 72.5802281,48.8592238 L72.5802281,48.7909434 L74.2317043,48.7909434 Z" id="Fill-16" fill="#BA9E67"></path>
                    <path d="M82.745547,48.7909434 L82.745547,48.8592238 C82.5513076,48.8618742 82.378398,48.9033978 82.2268181,48.9836682 C82.075112,49.0641911 81.9565995,49.1478693 81.8711544,49.2350814 C81.7858355,49.322041 81.6948371,49.4273013 81.5975281,49.5506099 L80.0785738,51.6327194 L80.0785738,54.0043579 C80.0785738,54.2160144 80.1486211,54.3747884 80.288211,54.4804273 C80.4281794,54.5865711 80.5966716,54.6418517 80.79394,54.647405 L80.79394,54.7116466 L78.7318981,54.7116466 L78.7318981,54.647405 C78.940778,54.6418517 79.1063674,54.5878332 79.2286662,54.4844661 C79.3507126,54.3813514 79.411799,54.2213153 79.411799,54.0043579 L79.411799,51.7331837 L77.7560316,49.474252 C77.5793356,49.2302853 77.4211927,49.0682299 77.2813505,48.9879594 C77.1416344,48.9074366 76.9524435,48.8645247 76.713904,48.8592238 L76.713904,48.7909434 L79.0233203,48.7909434 L79.0233203,48.8592238 C78.7878098,48.8671751 78.6369872,48.9134947 78.5707262,48.9979301 C78.504339,49.0822394 78.4713978,49.162005 78.4713978,49.2371007 C78.4713978,49.3229245 78.5286978,49.4435826 78.6435501,49.5988226 L79.9991868,51.4277521 L81.2002146,49.7798098 C81.3824638,49.5331927 81.4738409,49.3442542 81.4738409,49.2129944 C81.4738409,49.1218697 81.4496083,49.0509389 81.4010169,48.9999495 C81.3524255,48.9490863 81.3030769,48.9153879 81.2530971,48.899359 C81.2029912,48.883204 81.1501086,48.8699518 81.0940708,48.8592238 L81.0940708,48.7909434 L82.745547,48.7909434 Z" id="Fill-18" fill="#BA9E67"></path>
                    <path d="M88.4818805,51.7734199 C88.4818805,50.9854821 88.3287861,50.3691918 88.022471,49.9244228 C87.7165346,49.4796538 87.3632689,49.1815425 86.9629263,49.030215 C86.5624575,48.8786351 86.1858427,48.8030345 85.832577,48.8030345 C85.5588244,48.8030345 85.2747226,48.8438008 84.9803976,48.9255858 C84.6859464,49.0073707 84.3996989,49.156805 84.121529,49.3737625 C83.843359,49.5908461 83.6144115,49.8962777 83.4349389,50.2901835 C83.2554663,50.6840892 83.1654776,51.170508 83.1654776,51.7493135 C83.1654776,52.2584503 83.2398161,52.7025882 83.3886193,53.0817273 C83.5370439,53.4609926 83.7417588,53.7703367 84.0023854,54.0102646 C84.2628857,54.2500663 84.5498905,54.4229759 84.8633996,54.5288673 C85.1767825,54.6347586 85.5027866,54.687515 85.8412856,54.687515 C86.1444453,54.687515 86.4515177,54.638545 86.762124,54.5407311 C87.0724778,54.4430435 87.3565797,54.2835123 87.6143034,54.0625161 C87.8717746,53.8413937 88.0807807,53.541263 88.2413216,53.162124 C88.4016101,52.7829849 88.4818805,52.3199153 88.4818805,51.7734199 M89.2589642,51.7572648 C89.2589642,52.3119639 89.1080153,52.8279162 88.8063701,53.3049953 C88.5047248,53.781822 88.0932756,54.1615921 87.572275,54.4443056 C87.0511481,54.7270192 86.4742357,54.8683759 85.8412856,54.8683759 C85.2055587,54.8683759 84.6227144,54.7270192 84.092879,54.4443056 C83.5629173,54.1615921 83.1456624,53.7804336 82.8409881,53.3008303 C82.5363137,52.821227 82.3839766,52.2985855 82.3839766,51.7332847 C82.3839766,51.2991174 82.4744701,50.891076 82.6555835,50.5092865 C82.8365707,50.1272445 83.0896245,49.7945513 83.4149975,49.5103232 C83.7402443,49.2264737 84.1110534,49.0064873 84.5278035,48.8512472 C84.9443011,48.6957548 85.3790994,48.6180086 85.832577,48.6180086 C86.2768411,48.6180086 86.7038143,48.6924733 87.1131179,48.8412765 C87.522169,48.9898274 87.8894442,49.2048916 88.2148172,49.4862168 C88.5399378,49.767542 88.7952635,50.101245 88.9807942,50.4871995 C89.166325,50.8730277 89.2589642,51.296467 89.2589642,51.7572648" id="Fill-20" fill="#BA9E67"></path>
                    <path d="M95.9443822,51.7734199 C95.9443822,50.9854821 95.7912878,50.3691918 95.4849727,49.9244228 C95.1789101,49.4796538 94.8256444,49.1815425 94.425428,49.030215 C94.0249592,48.8786351 93.6483444,48.8030345 93.2950787,48.8030345 C93.0213261,48.8030345 92.7372243,48.8438008 92.442773,48.9255858 C92.1484481,49.0073707 91.8622006,49.156805 91.5840307,49.3737625 C91.3058607,49.5908461 91.0769132,49.8962777 90.8974406,50.2901835 C90.7178418,50.6840892 90.6279793,51.170508 90.6279793,51.7493135 C90.6279793,52.2584503 90.7023178,52.7025882 90.8509948,53.0817273 C90.9995456,53.4609926 91.2042605,53.7703367 91.4648871,54.0102646 C91.7253874,54.2500663 92.0123922,54.4229759 92.3257751,54.5288673 C92.6392842,54.6347586 92.9652883,54.687515 93.3037872,54.687515 C93.606947,54.687515 93.9138932,54.638545 94.2244994,54.5407311 C94.5349795,54.4430435 94.8190814,54.2835123 95.076805,54.0625161 C95.3341501,53.8413937 95.5432824,53.541263 95.7036971,53.162124 C95.8641118,52.7829849 95.9443822,52.3199153 95.9443822,51.7734199 M96.7214659,51.7572648 C96.7214659,52.3119639 96.570517,52.8279162 96.2688718,53.3049953 C95.9671003,53.781822 95.5557773,54.1615921 95.0346504,54.4443056 C94.5136498,54.7270192 93.9367374,54.8683759 93.3037872,54.8683759 C92.6680604,54.8683759 92.0852161,54.7270192 91.5553807,54.4443056 C91.0252928,54.1615921 90.6081641,53.7804336 90.3034897,53.3008303 C89.9988154,52.821227 89.846352,52.2985855 89.846352,51.7332847 C89.846352,51.2991174 89.9369718,50.891076 90.117959,50.5092865 C90.2990723,50.1272445 90.552,49.7945513 90.8774992,49.5103232 C91.2026198,49.2264737 91.5735551,49.0064873 91.9901789,48.8512472 C92.4066766,48.6957548 92.8416011,48.6180086 93.2950787,48.6180086 C93.7393428,48.6180086 94.166316,48.6924733 94.5754934,48.8412765 C94.9846707,48.9898274 95.3519459,49.2048916 95.6773189,49.4862168 C96.0024395,49.767542 96.2577652,50.101245 96.4432959,50.4871995 C96.6287005,50.8730277 96.7214659,51.296467 96.7214659,51.7572648" id="Fill-22" fill="#BA9E67"></path>
                    <path d="M68.3774136,36.5452315 L68.3774136,29.8283867 L63.8204246,29.8283867 L63.8204246,36.5452315 C63.8204246,37.6368339 63.5955159,38.5060518 63.1458247,39.1516232 C62.6960072,39.7976993 62.1312112,40.2526915 61.4518152,40.5162209 C61.1747812,40.623753 60.8765436,40.7075574 60.5661898,40.7773523 C60.2632824,40.7126058 59.9873843,40.6358693 59.7421555,40.5455019 C59.1738256,40.3371269 58.5803795,39.8335434 57.9623223,39.034499 C57.3440126,38.2359594 56.6860726,36.9474672 55.9885021,35.1681388 L53.9249457,29.7926689 L49.2632013,29.7926689 L51.4419887,35.712741 C51.4419887,35.7853126 51.4818715,35.8943593 51.5616371,36.0393762 C51.9401451,37.0741835 52.1299671,37.9003633 52.1299671,38.5172847 C52.1299671,39.6429642 51.7308866,40.3324571 50.9336092,40.5865206 C50.1358269,40.8409628 48.9992932,40.9678053 47.5236295,40.9678053 L47.5236295,41.4033608 L61.9105936,41.4033608 L61.9105936,41.4031084 L73.1742042,41.4031084 L73.1742042,40.9665432 C69.9761334,40.8757972 68.3774136,39.4019004 68.3774136,36.5452315" id="Fill-24" fill="#BA9E67"></path>
                    <path d="M24.0179292,12.5692549 C24.0179292,13.9423088 23.8736696,15.1496471 23.5870435,16.1935416 L28.287661,16.1935416 C28.8294866,14.9242335 29.1026081,13.6075961 29.1026081,12.2423674 C29.1026081,10.8088582 28.7984386,9.442746 28.190352,8.14466171 C27.5817606,6.84708226 26.664961,5.68063647 25.4385648,4.64608159 C24.2121686,3.6114005 22.6766806,2.79456029 20.8322272,2.19543475 C18.9877737,1.59643543 16.8590922,1.29693577 14.446435,1.29693577 L2.52422808e-05,1.29693577 L2.52422808e-05,1.7598792 L0.598141086,1.7598792 C0.797302682,1.7964805 1.16129637,1.87801307 1.68986973,2.00485553 C2.21793825,2.13207663 2.69640568,2.32745188 3.12552445,2.59035024 C3.55401217,2.85362723 3.92797656,3.29410503 4.24729141,3.91090016 C4.565849,4.52794771 4.72575885,5.29935181 4.72575885,6.22523867 L4.72575885,16.1935416 L9.24223394,16.1935416 L9.24223394,2.7127753 C10.6777625,2.47713861 12.0836313,2.35900473 13.459588,2.35900473 C17.0086527,2.35900473 19.6555583,3.31657066 21.4008096,5.23119766 C23.1451774,7.14658192 24.0179292,9.59243272 24.0179292,12.5692549" id="Fill-26" fill="#BA9E67"></path>
                    <g id="Group-30" transform="translate(0.000000, 29.752319)">
                        <mask id="mask-4" fill="white">
                            <use xlink:href="#path-3"></use>
                        </mask>
                        <g id="Clip-29"></g>
                        <path d="M9.24219608,6.80449854 L9.24219608,0.0403245436 L4.72572098,0.0403245436 L4.72572098,6.80449854 C4.72572098,8.34768537 4.28170926,9.459103 3.39482173,10.1398873 C2.50742934,10.8205454 1.37569168,11.179112 -1.26211404e-05,11.2154609 L-1.26211404e-05,11.6510165 L14.0277539,11.6510165 L14.0277539,11.2154609 C10.8372558,11.1247149 9.24219608,9.65447825 9.24219608,6.80449854" id="Fill-28" fill="#BA9E67" mask="url(#mask-4)"></path>
                    </g>
                    <polygon id="Fill-31" fill="#BA9E67" points="42.7980347 0.806945233 39.5676538 0.806945233 34.0224296 16.1935037 35.4054541 16.1935037 39.5078296 4.59139419 39.627478 4.59139419 44.0034798 16.1935037 48.7047284 16.1935037"></polygon>
                    <g id="Group-35" transform="translate(88.347983, 0.092639)">
                        <mask id="mask-6" fill="white">
                            <use xlink:href="#path-5"></use>
                        </mask>
                        <g id="Clip-34"></g>
                        <path d="M10.6691043,6.85416272 C12.2843579,5.0843002 14.2032761,3.71389678 16.4269948,2.74270002 C18.6499563,1.77175569 21.0279053,1.28609421 23.5605896,1.28609421 C25.4150137,1.28609421 27.4086491,1.59909849 29.5425053,2.22523327 C31.6759829,2.85162046 33.5654938,3.84528285 35.210407,5.20672526 C36.8555727,6.56804147 37.8674095,8.22910976 38.2465486,10.1895515 L38.7548019,10.1895515 L39.1736975,0.605309894 L38.6949777,0.605309894 C38.5552617,1.1499121 38.3558476,1.52665314 38.0968618,1.73528059 C37.8373712,1.94428668 37.3191472,2.04841109 36.5414325,2.04841109 C36.1227893,2.04841109 35.6142835,1.99376155 35.0161677,1.88509353 L31.9054352,1.09551499 C28.9539815,0.387469011 26.1725346,0.0335722335 23.5605896,0.0335722335 C19.3330124,0.0335722335 15.4147794,1.00943881 11.8058905,2.96041469 C8.19637052,4.91189542 5.33490557,7.56183007 3.22162182,10.9111021 C1.10770701,14.2599955 0.0511913455,17.8857967 0.0511913455,21.7885057 C0.0511913455,24.3844219 0.559570881,26.9072617 1.57645616,29.3579085 C2.59359387,31.8081767 4.08894659,34.0134686 6.06314537,35.9740365 C8.03721794,37.9344783 10.4547974,39.4911697 13.3162623,40.643606 C16.1773487,41.7961686 19.3433617,42.3725761 22.812787,42.3725761 C26.1027397,42.3725761 28.8494785,41.9370205 31.0530034,41.065657 C33.2561497,40.1944197 35.683826,38.8240162 38.3361587,36.9541943 L38.3361587,35.4021726 C36.1826135,37.3265179 33.7695776,38.7015912 31.0979346,39.5272662 C28.4255344,40.353446 25.9729944,40.7661573 23.739936,40.7661573 C21.0677881,40.7661573 18.6350633,40.3126797 16.4418878,39.4048411 C14.2482073,38.4972549 12.3189398,37.1582781 10.6543376,35.3887942 C8.98910435,33.6188055 7.72320397,31.5316475 6.85575299,29.1263106 C5.98830201,26.7213523 5.55476583,24.1120577 5.55476583,21.2983007 C5.55476583,18.3944287 6.00332116,15.7029705 6.90055803,13.2253144 C7.79779491,10.7475321 9.05410322,8.62377282 10.6691043,6.85416272" id="Fill-33" fill="#BA9E67" mask="url(#mask-6)"></path>
                    </g>
                    <path d="M89.3033653,34.5257228 L85.3160947,28.3852856 C83.0773568,24.9286076 81.0110237,22.7902078 78.3727005,21.6256552 C78.3727005,21.6256552 81.2197773,20.9367933 82.9373883,19.6393401 C84.2863358,18.6203092 85.6203904,17.2640415 86.2904467,15.9268316 C86.9597458,14.5894956 87.2947108,13.1933451 87.2947108,11.7376227 C87.2947108,10.5912445 87.0894911,9.42719675 86.6801875,8.24421726 C86.2703791,7.06161641 85.5904783,5.9382087 84.6413685,4.87386793 C83.6918801,3.80940095 82.3630002,2.93185305 80.654224,2.24008835 C78.9453216,1.5489547 76.8615713,1.20313545 74.4030994,1.20313545 L59.1135975,1.20313545 L59.1135975,1.77626144 L59.7131016,1.77626144 C60.7325112,1.77626144 61.671524,2.10365382 62.5312761,2.75881722 C63.3902709,3.41372819 63.8203994,4.54205815 63.8203994,6.14279739 L63.8203994,16.1935163 L68.3773883,16.1935163 L68.3773883,2.51308362 C69.0967933,2.34951364 70.015991,2.26735001 71.1354861,2.26735001 C73.893584,2.26735001 76.0868857,2.77232184 77.7160225,3.78213928 C79.3450331,4.79195673 80.4991102,6.03829434 81.1787586,7.52115213 C81.8580284,9.00426234 82.1979157,10.5187992 82.1979157,12.0650151 C82.1979157,13.9209538 81.8181456,15.4901402 81.058984,16.7728267 C80.2990651,18.0555132 78.3119928,19.2323083 76.623158,19.9235682 C75.2779968,20.474481 71.9646951,21.1839153 71.9646951,21.1839153 C71.9646951,21.1839153 74.6873275,22.8685851 76.7866018,24.9874221 C77.8423602,26.0528988 78.9799035,27.3119838 80.0397007,28.9310237 L85.3160947,36.8728763 C85.3956078,36.9457002 85.6306135,37.2594618 86.0207329,37.8144133 C86.4102213,38.3696173 86.7049249,38.7830859 86.90497,39.0562073 C87.2446049,39.4749768 87.5645508,39.8706495 87.8643029,40.2433518 C88.1641812,40.6164327 88.4836223,41.0031445 88.8236358,41.4031084 L96.85838,41.4031084 L96.85838,40.9665432 C95.798709,40.8757972 94.72465,40.4662412 93.6354456,39.73838 C92.5458625,39.0108975 91.1021303,37.2732188 89.3033653,34.5257228" id="Fill-36" fill="#BA9E67"></path>
                    <path d="M28.0522515,38.1631733 C28.0522515,37.3463331 28.2915483,36.2667208 28.7700158,34.9230741 L30.591625,29.7927068 L29.1212621,29.7927068 L27.1248501,35.3314943 C26.4669101,37.165346 25.6939914,38.5307009 24.8068515,39.4293261 C23.9194591,40.3278251 22.7381204,40.8410007 21.262709,40.9678431 L21.262709,41.4033987 L31.6116655,41.4033987 L31.6116655,40.9678431 C30.4748794,40.9678431 29.5972053,40.7816813 28.9796529,40.4096101 C28.3610908,40.0376651 28.0522515,39.288979 28.0522515,38.1631733" id="Fill-38" fill="#BA9E67"></path>
                    <path d="M11.0182808,22.8956574 C11.0182808,22.0391868 10.8519342,21.3693829 10.5191147,20.8856146 C10.186169,20.4023511 9.80236015,20.0782403 9.36718323,19.9135344 C8.93200631,19.7489547 8.52257652,19.6667911 8.13851521,19.6667911 C7.84090872,19.6667911 7.53206942,19.7112175 7.21212351,19.7999441 C6.8921776,19.8889231 6.58106649,20.051231 6.27853775,20.2872463 C5.97626144,20.5230092 5.72737255,20.8550714 5.53212351,21.283433 C5.33687446,21.711542 5.23956547,22.2402416 5.23956547,22.8694055 C5.23956547,23.4229687 5.32021456,23.9056011 5.48189137,24.3178075 C5.64344197,24.730014 5.86582646,25.0664936 6.14904485,25.3272463 C6.43213703,25.5878729 6.74425783,25.7756755 7.08502862,25.890654 C7.4256732,26.0058851 7.78020104,26.0633112 8.14810728,26.0633112 C8.47764526,26.0633112 8.81134821,26.0103025 9.14871129,25.90378 C9.4863268,25.7973838 9.79503989,25.6240956 10.075103,25.3839153 C10.3550399,25.1436087 10.5822204,24.8174785 10.7566446,24.4051458 C10.9310687,23.9929394 11.0182808,23.4897345 11.0182808,22.8956574 M11.8630137,22.8779878 C11.8630137,23.4811521 11.6990651,24.0419094 11.3711679,24.5602596 C11.0430183,25.0787361 10.5958513,25.4915736 10.0295407,25.7990246 C9.4631039,26.1062231 8.83595943,26.2598224 8.14810728,26.2598224 C7.45684742,26.2598224 6.82339238,26.1062231 6.24736353,25.7990246 C5.67133469,25.4915736 5.21785711,25.0773478 4.88667839,24.5559684 C4.55549966,24.0344629 4.3899103,23.4663854 4.3899103,22.8518621 C4.3899103,22.3799576 4.48835519,21.9364508 4.68511877,21.5213414 C4.88188235,21.1063584 5.15702321,20.7445103 5.51054136,20.4356709 C5.86418571,20.1269579 6.26730494,19.8880397 6.72015145,19.7190426 C7.17287176,19.5502979 7.64553347,19.4657363 8.13851521,19.4657363 C8.62165247,19.4657363 9.08560559,19.5466378 9.53037458,19.7081884 C9.97501735,19.8698652 10.374224,20.1036087 10.7278684,20.4095452 C11.0813865,20.7153554 11.3589254,21.0779608 11.5606112,21.4974875 C11.762297,21.916888 11.8630137,22.377181 11.8630137,22.8779878" id="Fill-40" fill="#BA9E67"></path>
                    <path d="M20.2575867,19.653602 L20.2575867,19.7279405 C20.0782403,19.7482605 19.9366311,19.779561 19.8327591,19.8218418 C19.7287609,19.8639964 19.6479856,19.9470435 19.590307,20.0709831 C19.5327546,20.1946703 19.5038522,20.3731332 19.5038522,20.6061195 L19.5038522,26.2511769 L19.4558918,26.2511769 L14.0275393,20.7372531 L14.0275393,24.6957476 C14.0275393,25.0249069 14.0419274,25.2695046 14.0707036,25.4297931 C14.0994798,25.5899554 14.1410034,25.704934 14.1955267,25.7749813 C14.313913,25.926435 14.5202686,26.0080938 14.8145936,26.0194528 L14.8145936,26.0895001 L13.0435952,26.0895001 L13.0435952,26.0194528 C13.2419995,26.0108704 13.3964823,25.9722497 13.5067911,25.9037169 C13.6172261,25.8353103 13.6956033,25.7101086 13.7419229,25.5281118 C13.7883687,25.3461149 13.8114654,25.0714789 13.8114654,24.7044562 L13.8114654,20.5056552 L13.5763336,20.2653487 C13.3683372,20.0497796 13.2019905,19.9135975 13.0771675,19.8566761 C12.9524706,19.799881 12.7971043,19.7570953 12.6116998,19.7279405 L12.6116998,19.653602 L13.9412107,19.653602 L19.2879044,25.1064395 L19.2879044,20.9513076 C19.2879044,20.6395655 19.2742736,20.4067054 19.2471382,20.2522227 C19.2198765,20.0979923 19.147936,19.9740527 19.0311904,19.8807825 C18.9143187,19.7876385 18.7311859,19.7366491 18.481666,19.7279405 L18.481666,19.653602 L20.2575867,19.653602 Z" id="Fill-42" fill="#BA9E67"></path>
                    <path d="M30.6340446,20.907588 L30.5573081,20.907588 C30.5219689,20.4881875 30.38768,20.2165806 30.1540627,20.0927672 C29.9204453,19.9689538 29.6323047,19.906984 29.2901456,19.906984 L27.8837719,19.906984 L27.8837719,25.3118612 C27.8837719,25.7691251 28.1397286,26.0051404 28.6517683,26.0195285 L28.6517683,26.0895758 L26.4006617,26.0895758 L26.4006617,26.0195285 C26.6118134,26.0137228 26.7902763,25.9578111 26.9357981,25.8512887 C27.081446,25.7450187 27.1543962,25.5651675 27.1543962,25.3118612 L27.1543962,19.906984 L25.7480225,19.906984 C25.4054848,19.906984 25.1183538,19.9689538 24.8863773,20.0927672 C24.6544007,20.2165806 24.5192283,20.4881875 24.48086,20.907588 L24.4041235,20.907588 L24.4041235,19.3347415 L24.48086,19.3347415 C24.5318494,19.4074393 24.5767807,19.4613315 24.6152752,19.4962921 C24.6535172,19.5313789 24.7032445,19.5611648 24.7640784,19.5859022 C24.8247861,19.6106396 24.8959693,19.628183 24.9776281,19.6384061 C25.0591607,19.648503 25.1559648,19.6535515 25.2679144,19.6535515 L29.8468641,19.6535515 C30.1509074,19.6535515 30.38768,19.5474077 30.5573081,19.3347415 L30.6340446,19.3347415 L30.6340446,20.907588 Z" id="Fill-44" fill="#BA9E67"></path>
                    <path d="M36.8684462,22.5985053 L36.8684462,20.4445815 C36.8684462,20.2346919 36.8060978,20.0629182 36.6814009,19.9290079 C36.5565779,19.7949714 36.3629696,19.7279531 36.1005761,19.7279531 L36.1005761,19.6536146 L38.3516827,19.6536146 L38.3516827,19.7279531 C38.0892892,19.7279531 37.8971954,19.7942141 37.7755276,19.9267361 C37.653986,20.0592581 37.5932783,20.2319153 37.5932783,20.4445815 L37.5932783,25.3117981 C37.5932783,25.7835763 37.8460798,26.0194654 38.3516827,26.0194654 L38.3516827,26.0895127 L36.1005761,26.0895127 L36.1005761,26.0194654 C36.3405039,26.0194654 36.5285589,25.9606509 36.6646148,25.8426432 C36.8005445,25.7247618 36.8684462,25.55059 36.8684462,25.3203804 L36.8684462,22.7951427 L32.817565,22.7951427 L32.817565,25.3117981 C32.817565,25.5360757 32.8872337,25.7101213 33.0265711,25.8339346 C33.1656561,25.957748 33.3520703,26.0194654 33.5855614,26.0194654 L33.5855614,26.0895127 L31.3344548,26.0895127 L31.3344548,26.0194654 C31.5776642,26.0194654 31.7642046,25.957748 31.8936975,25.8339346 C32.0231904,25.7101213 32.0879369,25.5360757 32.0879369,25.3117981 L32.0879369,20.4445815 C32.0879369,19.9667451 31.8367762,19.7279531 31.3344548,19.7279531 L31.3344548,19.6536146 L33.5855614,19.6536146 L33.5855614,19.7279531 C33.3198864,19.7279531 33.1256471,19.7942141 33.0023385,19.9267361 C32.8792824,20.0592581 32.817565,20.2319153 32.817565,20.4445815 L32.817565,22.5985053 L36.8684462,22.5985053 Z" id="Fill-46" fill="#BA9E67"></path>
                    <path d="M39.2154357,19.7279279 L39.2154357,19.6535894 L43.4296344,19.6535894 L43.4296344,20.6673194 L43.3623638,20.6673194 C43.3623638,20.1254938 42.9656813,19.8546441 42.172064,19.8546441 L40.6985459,19.8546441 L40.6985459,22.7777002 L41.9944846,22.7777002 C42.2504413,22.7777002 42.4792626,22.7398368 42.6809484,22.66411 C42.882508,22.5883831 42.9976128,22.4150949 43.026389,22.1442452 L43.0984557,22.1442452 L43.0984557,23.6033753 L43.026389,23.6033753 C42.9976128,23.4374073 42.9430895,23.3099337 42.8631977,23.2212071 C42.7831796,23.1323543 42.7040451,23.0732874 42.6256678,23.0440063 C42.5470381,23.0151039 42.4776218,23.0005896 42.4167879,23.0005896 C42.3016831,22.98292 42.1816561,22.9743376 42.0569592,22.9743376 L40.6985459,22.9743376 L40.6985459,25.2592689 C40.6985459,25.4311688 40.7345161,25.5797196 40.8065828,25.7049213 C40.8786495,25.8302493 41.0457534,25.8929763 41.3081469,25.8929763 L42.3592355,25.8929763 C42.612037,25.8929763 42.8201596,25.8594041 42.9832247,25.7923858 C43.146416,25.7254938 43.2751517,25.6322236 43.3695578,25.5127014 C43.4638377,25.3934316 43.5432247,25.2492982 43.6070877,25.0803011 L43.6742321,25.0803011 L43.4296344,26.0894875 L39.2154357,26.0894875 L39.2154357,26.0195664 L39.3116087,26.0195664 C39.4618003,26.0195664 39.6089628,25.9642858 39.75297,25.8534722 C39.8969772,25.7427848 39.9690439,25.5624287 39.9690439,25.3117728 L39.9690439,20.4618472 C39.9690439,20.2639477 39.9202001,20.0920478 39.8227649,19.9463998 C39.7250773,19.8007519 39.5546919,19.7279279 39.3116087,19.7279279 L39.2154357,19.7279279 Z" id="Fill-48" fill="#BA9E67"></path>
                </g>
            </g>
        </g>
    </g>
</svg>