<?xml version="1.0" encoding="UTF-8"?>
<svg width="21px" height="21px" viewBox="0 0 21 21" version="1.1" xmlns="http://www.w3.org/2000/svg" xmlns:xlink="http://www.w3.org/1999/xlink">
    <title>streamline-icon-phone-actions-next@140x140</title>
    <g id="V2" stroke="none" stroke-width="1" fill="none" fill-rule="evenodd" stroke-linecap="round" stroke-linejoin="round">
        <g id="M---1.0---HOME-V2" transform="translate(-247.000000, -6439.000000)" stroke="#4A4A4A">
            <g id="streamline-icon-phone-actions-next@140x140" transform="translate(248.000000, 6439.000000)">
                <path d="M12.3924242,19.1787879 L12.4030303,19.1862121 C14.2908835,20.3882463 16.7604382,20.1170363 18.3424242,18.5339394 L19.0095455,17.8668182 C19.3081193,17.5684356 19.4758725,17.1636271 19.4758725,16.7415152 C19.4758725,16.3194032 19.3081193,15.9145947 19.0095455,15.6162121 L16.1957576,12.8045455 C15.897375,12.5059716 15.4925665,12.3382184 15.0704545,12.3382184 C14.6483426,12.3382184 14.2435341,12.5059716 13.9451515,12.8045455 L13.9451515,12.8045455 C13.3239018,13.4256076 12.3168558,13.4256076 11.6956061,12.8045455 L7.19651515,8.30439394 C6.57545298,7.68314418 6.57545298,6.67609825 7.19651515,6.05484848 L7.19651515,6.05484848 C7.49508903,5.7564659 7.66284218,5.35165744 7.66284218,4.92954545 C7.66284218,4.50743347 7.49508903,4.10262501 7.19651515,3.80424242 L4.38378788,0.992575758 C3.76253812,0.371513583 2.75549219,0.371513583 2.13424242,0.992575758 L1.46606061,1.65969697 C-0.116693241,3.24194767 -0.38745961,5.71147806 0.814848485,7.59909091 L0.821212121,7.60969697 C3.90352636,12.1700778 7.83147836,16.0973098 12.3924242,19.1787879 L12.3924242,19.1787879 Z" id="Path"></path>
            </g>
        </g>
    </g>
</svg>