<?xml version="1.0" encoding="UTF-8"?>
<svg width="20px" height="20px" viewBox="0 0 20 20" version="1.1" xmlns="http://www.w3.org/2000/svg" xmlns:xlink="http://www.w3.org/1999/xlink">
    <title>Path</title>
    <g id="V7---Vista-aérea-galeria-e-form-contato" stroke="none" stroke-width="1" fill="none" fill-rule="evenodd">
        <g id="M---1.0---HOME---form-completo" transform="translate(-43.000000, -6587.000000)" fill="#FFBD59" fill-rule="nonzero">
            <g id="Group-12" transform="translate(23.000000, 6206.000000)">
                <g id="Group-16-Copy" transform="translate(20.000000, 381.000000)">
                    <path d="M2.16903705,0.600071427 L1.51445157,1.25376223 C-0.142219086,2.91027225 -0.471362166,5.46440099 0.68375054,7.47857136 L0.808546003,7.68494873 C3.75052879,12.0398871 7.44939568,15.797762 11.7353759,18.795007 L12.2977324,19.181625 C14.3594401,20.4952019 17.0331051,20.2015113 18.7458432,18.4871916 L19.3994907,17.8333996 C19.7839372,17.4491146 20,16.9276138 20,16.3838214 C20,15.840029 19.7839372,15.3185282 19.3993797,14.9341322 L16.6418889,12.1781109 C16.2578195,11.7937101 15.7364339,11.5775995 15.1927617,11.5775995 C14.7185504,11.5775995 14.2595729,11.7420983 13.8936993,12.0421159 L13.7609515,12.1616277 C13.3260826,12.5956291 12.6493578,12.5956291 12.2318841,12.1781892 L7.82293361,7.76722432 C7.43275612,7.37684268 7.40479941,6.75419427 7.75323301,6.33192882 L7.83899914,6.23838555 C8.20733918,5.87099681 8.42340203,5.34949597 8.42340203,4.8057036 C8.42340203,4.26191123 8.20733918,3.7404104 7.82278173,3.35601436 L5.0663956,0.600058408 C4.26625079,-0.200021639 2.96919488,-0.200021639 2.16903705,0.600071427 Z M2.01211954,7.70741279 L1.64264033,7.17024281 C0.580944595,5.50269582 0.818493432,3.33564763 2.20685532,1.9474201 L2.86166379,1.29350647 C3.27936042,0.875843787 3.95608525,0.875843787 4.3735589,1.29328365 L7.13000375,4.04929831 C7.33068813,4.24989845 7.44341657,4.52198584 7.44341657,4.8057036 C7.44341657,5.04889025 7.36059567,5.28353214 7.21058284,5.47190637 L7.0127444,5.69030389 C6.32826739,6.51894121 6.38182576,7.71178698 7.1298861,8.46023871 L11.5389413,12.8713083 C12.2991797,13.6314852 13.5077846,13.669494 14.3127798,12.9854147 L14.533383,12.7842959 C14.7058711,12.6436319 14.945351,12.5578017 15.1927617,12.5578017 C15.4764168,12.5578017 15.748444,12.670555 15.9489542,12.8712381 L18.7066671,15.6274814 C18.9072861,15.8280162 19.0200145,16.1001036 19.0200145,16.3838214 C19.0200145,16.6675392 18.9072861,16.9396265 18.7066474,17.140181 L18.0527673,17.7942057 C16.7161457,19.1320615 14.6575669,19.4022999 13.0345908,18.4827267 L12.8493234,18.3713349 C8.60922563,15.5059181 4.93835767,11.8921967 2.01211954,7.70741279 Z" id="Path"></path>
                </g>
            </g>
        </g>
    </g>
</svg>