<?xml version="1.0" encoding="UTF-8"?>
<svg width="21px" height="21px" viewBox="0 0 21 21" version="1.1" xmlns="http://www.w3.org/2000/svg" xmlns:xlink="http://www.w3.org/1999/xlink">
    <title>Group 5</title>
    <g id="V7---Vista-aérea-galeria-e-form-contato" stroke="none" stroke-width="1" fill="none" fill-rule="evenodd">
        <g id="M---1.0---HOME---form-completo" transform="translate(-43.000000, -6546.000000)" fill="#FFBD59" fill-rule="nonzero">
            <g id="Group-12" transform="translate(23.000000, 6206.000000)">
                <g id="Group-14-Copy" transform="translate(20.000000, 340.000000)">
                    <g id="Group-5">
                        <path d="M2.7132094,1.11218986 L2.04525513,1.77908374 C0.354749789,3.46905153 0.0188845211,6.07476792 1.19758844,8.12961999 L1.32493264,8.34016572 C4.32700042,12.783064 8.10141038,16.6168396 12.4749244,19.6746222 L13.0487661,20.069049 C15.1525808,21.4091572 17.8808507,21.1095347 19.6285687,19.3605896 L20.2955658,18.6935924 C20.6878639,18.3015458 20.9083395,17.7695118 20.9083395,17.214736 C20.9083395,16.6599603 20.6878639,16.1279263 20.2954525,15.7357663 L17.4816446,12.9240796 C17.0897313,12.5319149 16.5576973,12.3114393 16.0029215,12.3114393 C15.5190252,12.3114393 15.0506738,12.4792606 14.6773279,12.7853379 L14.541869,12.9072636 C14.0981187,13.3500308 13.4075729,13.3500308 12.981573,12.9241596 L8.48257719,8.42410309 C8.08443098,8.02583663 8.05590331,7.39061212 8.41145308,6.95981785 L8.49897083,6.86438523 C8.87483359,6.48957606 9.09530916,5.95754208 9.09530916,5.40276633 C9.09530916,4.84799058 8.87483359,4.3159566 8.48242221,3.92379663 L5.66974157,1.11217658 C4.85325517,0.295936714 3.52970909,0.295936714 2.7132094,1.11218986 Z M2.55308712,8.36308351 L2.17606193,7.8150639 C1.09268286,6.11383622 1.33508323,3.90301853 2.75180004,2.48675194 L3.41998186,1.81963073 C3.84620924,1.3935322 4.53675502,1.3935322 4.96275486,1.8194034 L7.77549542,4.63108335 C7.98027843,4.83573517 8.09530916,5.11331811 8.09530916,5.40276633 C8.09530916,5.6508648 8.01079678,5.89024593 7.8577202,6.08242489 L7.65584124,6.30523355 C6.95738495,7.15060748 7.01203716,8.36754605 7.77537536,9.13111481 L12.274478,13.631278 C13.050243,14.4068088 14.2835316,14.4455854 15.1049674,13.7476892 L15.3300761,13.5425082 C15.506087,13.3990031 15.7504578,13.3114393 16.0029215,13.3114393 C16.2923697,13.3114393 16.5699527,13.42647 16.7745579,13.6312064 L19.5885924,16.4431197 C19.7933087,16.6477049 19.9083395,16.9252878 19.9083395,17.214736 C19.9083395,17.5041842 19.7933087,17.7817672 19.5885724,17.9863724 L18.9213378,18.6536069 C17.557418,20.0184843 15.4567962,20.294181 13.8006736,19.3560344 L13.6116224,19.2423928 C9.28492788,16.319101 5.53908869,12.6323906 2.55308712,8.36308351 Z" id="Path"></path>
                        <g id="call" transform="translate(14.000000, 1.000000)">
                            <path d="M5.88137774,0.117570962 C5.80264681,0.039120396 5.69952929,0 5.59641178,0 C5.49297891,0 5.38944094,0.039435044 5.3106049,0.118305132 L0.807175794,4.62323451 L0.807280902,3.1678087 C0.807280902,2.94546217 0.626588725,2.7651727 0.403745559,2.7651727 C0.180797285,2.7651727 0.000105107973,2.94546217 0.000105107973,3.1678087 L0,5.59725912 C0,5.7040274 0.0424663391,5.8064956 0.118254032,5.88200952 C0.193936616,5.95752343 0.296528564,6 0.403535343,6 L2.83851738,6 C3.06146565,6 3.24215783,5.81971052 3.24215783,5.59725912 C3.24215783,5.3749126 3.06146565,5.19462312 2.83851738,5.19462312 L1.37616166,5.19462312 L5.88211355,0.687071745 C6.03957536,0.529541316 6.03926001,0.274576969 5.88137774,0.117570962 L5.88137774,0.117570962 Z" id="Path"></path>
                        </g>
                    </g>
                </g>
            </g>
        </g>
    </g>
</svg>