<?xml version="1.0" encoding="UTF-8"?>
<svg  width="24" height="24" viewBox="0 0 24 24" version="1.1" xmlns="http://www.w3.org/2000/svg" xmlns:xlink="http://www.w3.org/1999/xlink">

    <defs>
    <path d="M13 7h-2v4H7v2h4v4h2v-4h4v-2h-4V7zm-1-5C6.48 2 2 6.48 2 12s4.48 10 10 10 10-4.48 10-10S17.52 2 12 2zm0 18c-4.41 0-8-3.59-8-8s3.59-8 8-8 8 3.59 8 8-3.59 8-8 8z" id="path-1"/>
        <rect id="path-3" x="0" y="0" width="24" height="24"></rect>
        <rect id="path-5" x="0" y="0" width="24" height="24"></rect>
    </defs>
    <g id="DOCUMENTATION" stroke="none" stroke-width="1" fill="none" fill-rule="evenodd">
        <g id="guide/documentation/assets" transform="translate(-882.000000, -1178.000000)">
            <g id="Icons" transform="translate(0.000000, 632.000000)">
                <g transform="translate(152.000000, 232.000000)" id="Stacked-Group">
                    <g>
                        <g id="Stacked-Group-2" transform="translate(0.000000, 312.000000)">
                            <g id="information" transform="translate(730.000000, 2.000000)">
                                <mask id="mask-2" fill="white">
                                    <use xlink:href="#path-1"></use>
                                </mask>
                                <g id="Fill-1"></g>
                                <g id="elements/bg/filled" mask="url(#mask-2)">
                                    <g transform="translate(-2.000000, -2.000000)" id="elements/background">
                                        <g>
                                            <mask id="mask-4" fill="white">
                                                <use xlink:href="#path-3"></use>
                                            </mask>
                                            <g id="Mask"></g>
                                            <g id="variables/colors/action/primary" mask="url(#mask-4)">
                                                <mask id="mask-6" fill="white">
                                                    <use xlink:href="#path-5"></use>
                                                </mask>
                                                <use id="color" fill="#B50016" fill-rule="evenodd" xlink:href="#path-5"></use>
                                                <g id="variables/colors/shades/none" mask="url(#mask-6)">
                                                    <g transform="translate(-4.235294, -4.235294)" id="shade">
                                                        <rect x="0" y="0" width="32" height="32"></rect>
                                                    </g>
                                                </g>
                                            </g>
                                        </g>
                                    </g>
                                </g>
                            </g>
                        </g>
                    </g>
                </g>
            </g>
        </g>
    </g>
</svg>
