<?xml version="1.0" encoding="UTF-8"?>
<svg width="80px" height="80px" viewBox="0 0 80 80" version="1.1" xmlns="http://www.w3.org/2000/svg" xmlns:xlink="http://www.w3.org/1999/xlink">
    <title>success</title>
    <g id="V7---Vista-aérea-galeria-e-form-contato" stroke="none" stroke-width="1" fill="none" fill-rule="evenodd">
        <g id="D---1.6--Modal---feedback-padrão" transform="translate(-643.000000, -349.000000)" fill="#699F08" fill-rule="nonzero">
            <g id="Form-email" transform="translate(403.000000, 239.000000)">
                <g id="success" transform="translate(240.000000, 110.000000)">
                    <path d="M39.9887866,0 C17.9035983,0 0,17.9035983 0,39.9887866 C0,62.0739749 17.9035983,79.9775732 39.9887866,79.9775732 C62.0739749,79.9775732 79.9775732,62.0739749 79.9775732,39.9887866 C79.9541423,17.9134728 62.0642678,0.0235983264 39.9887866,0 Z M39.9887866,74.2649372 C21.0585774,74.2649372 5.71263598,58.9189958 5.71263598,39.9887866 C5.71263598,21.0585774 21.0585774,5.71263598 39.9887866,5.71263598 C58.9189958,5.71263598 74.2649372,21.0585774 74.2649372,39.9887866 C74.2445188,58.9106276 58.9106276,74.2445188 39.9887866,74.2649372 Z" id="Shape"></path>
                    <path d="M61.9323849,23.6876987 C60.8254393,22.6185774 59.0706276,22.6185774 57.9638494,23.6876987 L57.9638494,23.6876987 L31.419749,50.2316318 L22.0137238,40.8256067 C20.9178243,39.6908787 19.1094561,39.6595816 17.9748954,40.7554812 C16.8401674,41.8513808 16.8088703,43.659749 17.9047699,44.7943096 C17.9276987,44.8180753 17.9511297,44.8415063 17.9748954,44.8644351 L29.4003347,56.2898745 C30.5156485,57.4050209 32.3238494,57.4050209 33.4391632,56.2898745 L62.0026778,27.7263598 C63.0985774,26.5917992 63.067113,24.7835983 61.9323849,23.6876987 Z" id="Path"></path>
                </g>
            </g>
        </g>
    </g>
</svg>