<?xml version="1.0" encoding="UTF-8"?>
<svg width="20px" height="20px" viewBox="0 0 20 20" version="1.1" xmlns="http://www.w3.org/2000/svg" xmlns:xlink="http://www.w3.org/1999/xlink">
    <title>whatsapp</title>
    <g id="V7---Vista-aérea-galeria-e-form-contato" stroke="none" stroke-width="1" fill="none" fill-rule="evenodd">
        <g id="M---1.0---HOME---form-completo" transform="translate(-43.000000, -6506.000000)" fill="#FFBD59" fill-rule="nonzero">
            <g id="Group-12" transform="translate(23.000000, 6206.000000)">
                <g id="Group-11-Copy" transform="translate(20.000000, 300.000000)">
                    <g id="whatsapp">
                        <path d="M10,0 C4.48598347,0 0,4.48598347 0,10 C0,11.8200827 0.490579059,13.5914522 1.42118565,15.1410846 L0.132123176,19.1272978 C0.0641084706,19.3373162 0.119485294,19.5680147 0.275735294,19.7242647 C0.431985294,19.8805147 0.662683824,19.9358915 0.872702235,19.8678768 L4.85891541,18.5788144 C6.40854776,19.5094209 8.18014706,20 10,20 C15.5140165,20 20,15.5140165 20,10 C20,4.48598347 15.5140165,0 10,0 Z M10,18.8235294 C8.31089153,18.8235294 6.669807,18.3448989 5.25390624,17.4397978 C5.10569853,17.3448989 4.92279412,17.3216912 4.75597424,17.3756894 L1.60546876,18.3945312 L2.62431065,15.2437959 C2.67830882,15.0767464 2.65487129,14.8940717 2.56020224,14.7460938 C1.65510112,13.330193 1.17647059,11.6891085 1.17647059,10 C1.17647059,5.13465071 5.13465071,1.17647059 10,1.17647059 C14.8653493,1.17647059 18.8235294,5.13465071 18.8235294,10 C18.8235294,14.8653493 14.8653493,18.8235294 10,18.8235294 Z" id="Shape"></path>
                        <path d="M14.2371324,10.5404412 C14.0011489,10.3044577 13.6875,10.1746324 13.3538603,10.1746324 C13.3536305,10.1746324 13.3534007,10.1746324 13.3531709,10.1746324 C13.0195312,10.1746324 12.7061121,10.3049173 12.4712776,10.5402114 L12.0034467,11.0075827 C11.7171415,11.2938879 11.2534467,11.2938879 10.9671415,11.0075827 L9.09857535,9.138557 C8.81410847,8.85431988 8.80997241,8.39108459 9.09880518,8.10248165 L9.56640624,7.63488053 C10.0519301,7.14820771 10.0519301,6.35592829 9.56571694,5.86879594 L7.69761029,4.00114888 C7.21024818,3.51263788 6.41934741,3.51217829 5.93106618,4.00068935 L5.46415441,4.46760112 C4.79549635,5.13602941 4.57215071,6.54779412 4.88189341,8.15142465 C5.21691176,9.88694853 6.08731618,11.5284926 7.33226106,12.7736673 C8.57720588,14.0186121 10.21875,14.8887868 11.9542739,15.2240349 C13.1210938,15.4492188 14.8058364,15.4749541 15.6383272,14.6417739 L16.1047794,14.1753217 C16.5935202,13.6879595 16.5939798,12.8975184 16.1052389,12.4087776 L14.2371324,10.5404412 Z M14.8062959,13.8099724 C14.4871324,14.129136 13.4818474,14.3205423 12.1773897,14.0689338 C11.3044577,13.9002758 9.62224265,13.3998162 8.16406247,11.941636 C6.70611212,10.4836856 6.20565259,8.80147059 6.03699447,7.92853859 C5.78515624,6.62408088 5.97656247,5.61856618 6.29572612,5.29963235 C6.29572612,5.29963235 6.29595588,5.29963235 6.29595588,5.29940259 L6.76309741,4.83249082 C6.79136029,4.80422794 6.83639706,4.80353859 6.86534929,4.83249082 L8.73345588,6.70013788 C8.76194853,6.72863053 8.76194853,6.77527576 8.73391541,6.80330882 L8.26723347,7.27022059 C7.52068012,8.01585476 7.51976106,9.22426471 8.26677388,9.97058824 L10.1351103,11.8393842 C10.8807445,12.5850184 12.0889246,12.5859375 12.8350184,11.839614 L13.3033088,11.3717831 C13.3313419,11.34375 13.3766085,11.3439798 13.4051011,11.3722426 C15.3733915,13.3511029 15.294807,13.2350644 15.294807,13.2920496 C15.294807,13.3446691 15.2879136,13.3187041 14.8062959,13.8099724 L14.8062959,13.8099724 Z" id="Shape"></path>
                    </g>
                </g>
            </g>
        </g>
    </g>
</svg>